{"title":"Saheb Biwi Aur Gangster Returns 2013 Hindi Movies SCam Rip Sampl","uid":8234481,"size":730903512,"categoryP":"video","categoryS":"movies","magnet":"?xt=urn:btih:ddfa3b8f2862ed792e22ec9c99febd5aaed74fca&amp;dn=Saheb+Biwi+Aur+Gangster+Returns+2013+Hindi+Movies+SCam+Rip+Sampl&amp;tr=udp%3A%2F%2Ftracker.openbittorrent.com%3A80&amp;tr=udp%3A%2F%2Fopen.demonii.com%3A1337&amp;tr=udp%3A%2F%2Ftracker.coppersurfer.tk%3A6969&amp;tr=udp%3A%2F%2Fexodus.desync.com%3A6969","seeders":1,"leechers":0,"uploader":"basicssom","files":2,"time":1362808860,"description":"Saheb Biwi Aur Gangster Returns 2013 Hindi Movies SCam Rip Sample Included ~ rDX\n\nScreen Shots :\n &lt;a href=&quot;\nhttp://myimghosting.serveftp.com/13/SahebBiwiAurGangsterReturns.html&quot; rel=&quot;nofollow&quot; target=&quot;_NEW&quot;&gt;\nhttp://myimghosting.serveftp.com/13/SahebBiwiAurGangsterReturns.html&lt;/a&gt;\n &lt;a href=&quot;\nhttp://myimghost.cwahi.net/SahebBiwiAurGangsterReturns.html&quot; rel=&quot;nofollow&quot; target=&quot;_NEW&quot;&gt;\nhttp://myimghost.cwahi.net/SahebBiwiAurGangsterReturns.html&lt;/a&gt;\n\n\nFormat                                   : MPEG-4\nFormat profile                           : Base Media\nCodec ID                                 : isom\nFile size                                : 690 MiB\nDuration                                 : 1h 51mn\nOverall bit rate mode                    : Variable\nOverall bit rate                         : 866 Kbps\nWriting application                      : Lavf52.34.0\n\nVideo\nID                                       : 1\nFormat                                   : MPEG-4 Visual\nFormat profile                           : Simple@L1\nFormat settings, BVOP                    : No\nFormat settings, QPel                    : No\nFormat settings, GMC                     : No warppoints\nFormat settings, Matrix                  : Default (H.263)\nCodec ID                                 : 20\nDuration                                 : 1h 51mn\nBit rate                                 : 217 Kbps\nWidth                                    : 352 pixels\nHeight                                   : 288 pixels\nDisplay aspect ratio                     : 1.222\nFrame rate mode                          : Constant\nFrame rate                               : 29.970 fps\nStandard                                 : PAL\nColor space                              : YUV\nChroma subsampling                       : 4:2:0\nBit depth                                : 8 bits\nScan type                                : Progressive\nCompression mode                         : Lossy\nBits/(Pixel*Frame)                       : 0.071\nStream size                              : 173 MiB (25%)\nWriting library                          : Lavc52.30.1\n\nAudio\nID                                       : 2\nFormat                                   : AAC\nFormat/Info                              : Advanced Audio Codec\nFormat profile                           : LC\nCodec ID                                 : 40\nDuration                                 : 1h 51mn\nBit rate mode                            : Variable\nBit rate                                 : 152 Kbps\nChannel(s)                               : 2 channels\nChannel positions                        : Front: L R\nSampling rate                            : 44.1 KHz\nCompression mode                         : Lossy\nStream size                              : 121 MiB (18%)","torrent":{"xt":"urn:btih:ddfa3b8f2862ed792e22ec9c99febd5aaed74fca","amp;dn":"Saheb+Biwi+Aur+Gangster+Returns+2013+Hindi+Movies+SCam+Rip+Sampl","amp;tr":["udp%3A%2F%2Ftracker.openbittorrent.com%3A80","udp%3A%2F%2Fopen.demonii.com%3A1337","udp%3A%2F%2Ftracker.coppersurfer.tk%3A6969","udp%3A%2F%2Fexodus.desync.com%3A6969"],"infoHash":"ddfa3b8f2862ed792e22ec9c99febd5aaed74fca","infoHashBuffer":{"type":"Buffer","data":[221,250,59,143,40,98,237,121,46,34,236,156,153,254,189,90,174,215,79,202]},"announce":[],"urlList":[]}}